<svg preserveAspectRatio="none" width="100%" height="100%" overflow="visible" style="display: block;" viewBox="0 0 46 46" fill="none" xmlns="http://www.w3.org/2000/svg">
<g id="Group 3">
<g id="Ellipse 3">
<circle cx="23" cy="23" r="23" fill="white" fill-opacity="0.2"/>
<circle cx="23" cy="23" r="22.5" stroke="black" stroke-opacity="0.24"/>
</g>
<g id="Heart">
<path id="Vector" d="M28.0781 14.0625C25.9809 14.0625 24.1446 14.9644 23 16.4888C21.8554 14.9644 20.0191 14.0625 17.9219 14.0625C16.2524 14.0644 14.6519 14.7284 13.4714 15.9089C12.2909 17.0894 11.6269 18.6899 11.625 20.3594C11.625 27.4688 22.1662 33.2233 22.6151 33.4609C22.7334 33.5246 22.8656 33.5579 23 33.5579C23.1344 33.5579 23.2666 33.5246 23.3849 33.4609C23.8338 33.2233 34.375 27.4688 34.375 20.3594C34.3731 18.6899 33.7091 17.0894 32.5286 15.9089C31.3481 14.7284 29.7476 14.0644 28.0781 14.0625Z" fill="white"/>
</g>
</g>
</svg>
